<?xml version="1.0" standalone="no"?>
<!DOCTYPE svg PUBLIC "-//W3C//DTD SVG 20010904//EN"
 "http://www.w3.org/TR/2001/REC-SVG-20010904/DTD/svg10.dtd">
<svg version="1.0" xmlns="http://www.w3.org/2000/svg"
 width="1024.000000pt" height="1024.000000pt" viewBox="0 0 1024.000000 1024.000000"
 preserveAspectRatio="xMidYMid meet">
<metadata>
Created by potrace 1.11, written by Peter Selinger 2001-2013
</metadata>
<g transform="translate(0.000000,1024.000000) scale(0.100000,-0.100000)"
fill="#000000" stroke="none">
<path d="M5050 9438 c-73 -172 -146 -341 -161 -376 -16 -35 -29 -65 -29 -67 0
-3 -13 -34 -30 -70 -16 -36 -30 -68 -30 -71 0 -3 -13 -35 -30 -71 -16 -35 -30
-66 -30 -69 0 -2 -9 -26 -21 -52 -12 -26 -25 -56 -29 -67 -22 -51 -51 -118
-91 -210 -24 -55 -44 -102 -45 -105 0 -3 -9 -23 -18 -45 -10 -22 -38 -87 -63
-145 -43 -98 -156 -324 -199 -397 -11 -17 -34 -57 -53 -90 -38 -65 -190 -295
-200 -303 -4 -3 -18 -21 -31 -40 -98 -142 -298 -370 -480 -545 -141 -136 -229
-210 -395 -334 -60 -45 -121 -90 -134 -100 -56 -43 -334 -208 -465 -276 -180
-94 -212 -108 -811 -346 -275 -110 -509 -204 -520 -209 -11 -5 -130 -52 -265
-105 -135 -53 -254 -100 -265 -105 -11 -5 -53 -22 -93 -38 l-74 -29 109 -48
c59 -26 144 -65 188 -85 44 -21 121 -56 170 -78 175 -78 201 -90 288 -131 48
-22 89 -41 91 -41 2 0 44 -18 93 -41 165 -76 188 -87 233 -107 78 -35 602
-272 660 -299 78 -36 292 -142 310 -153 8 -5 62 -37 119 -71 138 -81 375 -247
431 -300 8 -8 35 -31 60 -51 150 -123 353 -330 486 -497 11 -13 24 -28 29 -35
6 -6 40 -51 76 -101 191 -262 331 -515 468 -845 29 -69 58 -138 65 -155 8 -16
26 -59 41 -95 15 -36 33 -78 40 -95 7 -16 38 -91 70 -165 31 -74 62 -148 70
-165 7 -16 45 -106 85 -200 164 -391 203 -483 226 -533 13 -29 24 -55 24 -58
0 -3 9 -24 19 -47 11 -23 36 -82 56 -131 20 -49 41 -96 45 -105 5 -9 11 -25
15 -35 3 -12 9 -16 15 -10 4 5 97 218 205 474 108 256 202 479 210 495 7 17
57 134 110 260 307 728 392 896 628 1228 32 45 159 211 167 217 3 3 16 19 29
35 57 74 202 227 347 365 348 332 796 614 1284 809 85 34 164 66 175 71 11 5
85 34 165 65 80 31 154 60 165 65 11 6 61 25 110 44 50 19 245 95 435 171 190
75 386 152 435 172 50 19 99 39 110 44 11 4 42 17 69 27 l49 19 -64 30 c-35
17 -228 112 -429 211 -1348 664 -1346 663 -1583 813 -114 73 -289 196 -373
263 -28 23 -66 53 -85 68 -184 143 -499 454 -670 658 -310 372 -557 771 -754
1220 -37 85 -76 173 -85 195 -10 22 -48 110 -85 195 -77 178 -102 237 -115
265 -5 11 -42 94 -81 185 -69 159 -219 506 -243 563 -12 26 -19 11 -146 -285z"/>
</g>
</svg>
